<?xml version="1.0" encoding="utf-8"?>
<svg version="1.1" id="Camada_1" xmlns="http://www.w3.org/2000/svg" xmlns:xlink="http://www.w3.org/1999/xlink" x="0px" y="0px"
	 viewBox="0 0 151.04 182.21" style="enable-background:new 0 0 151.04 182.21;" xml:space="preserve">
<style type="text/css">
	.simbolo{fill:#12A3FF;} /* Cor do simbolo (#12A3FF) */
</style>
<path class="simbolo" d="M138.23,32.83c-6.62-9.41-15.03-17.06-25.22-22.93C101.55,3.3,88.99,0,75.34,0C61.68,0,49.06,3.36,37.49,10.09
	c-11.58,6.73-20.73,15.69-27.43,26.9C3.35,48.2,0,60.41,0,73.61v34.38c0,12.96,3.47,25.1,10.42,36.43
	c6.95,11.34,16.15,20.49,27.61,27.46c11.45,6.97,23.77,10.46,36.94,10.46c13.65,0,26.27-3.49,37.85-10.46s20.85-16.19,27.8-27.65
	c6.95-11.45,10.42-23.54,10.42-36.24V73.61c0-10.12-1.9-19.53-5.69-28.22c-0.03,0.01-53.2,56.83-53.2,56.83
	c-1.79,2.5-1.47,6.15,2.53,6.08c7.38-0.13,17.96-0.31,17.96-0.31c0,6.73-1.71,13.14-5.12,19.24c-3.42,6.11-7.93,11.02-13.53,14.76
	c-5.61,3.74-11.83,5.6-18.65,5.6c-6.83,0-13.05-1.87-18.65-5.6c-5.61-3.74-10.06-8.65-13.35-14.76c-3.29-6.1-4.94-12.52-4.94-19.24
	V73.61c0-6.47,1.65-12.7,4.94-18.68c3.29-5.98,7.68-10.84,13.17-14.57c5.49-3.74,11.76-5.6,18.84-5.6c6.82,0,13.04,1.87,18.65,5.6
	c5.61,3.74,10.11,8.59,13.53,14.57c1.27,2.22,2.3,4.47,3.09,6.76C110.64,61.65,138.2,32.87,138.23,32.83z"/>
</svg>
